<svg width="226" height="10" viewBox="0 0 226 10" fill="none" xmlns="http://www.w3.org/2000/svg">
<path d="M2 8L7 3L11.4444 7.44444L15.8889 3L20.3333 7.44444L24.7778 3L29.2222 7.44444L33.6667 3L38.1111 7.44444L42.5556 3L47 7.44444L51.4444 3L55.8889 7.44444L60.3333 3L64.7778 7.44444" stroke="#AD72D3" stroke-width="3"/>
<path d="M82 8L87 3L91.4444 7.44444L95.8889 3L100.333 7.44444L104.778 3L109.222 7.44444L113.667 3L118.111 7.44444L122.556 3L127 7.44444L131.444 3L135.889 7.44444L140.333 3L144.778 7.44444" stroke="#AD72D3" stroke-width="3"/>
<path d="M162 8L167 3L171.444 7.44444L175.889 3L180.333 7.44444L184.778 3L189.222 7.44444L193.667 3L198.111 7.44444L202.556 3L207 7.44444L211.444 3L215.889 7.44444L220.333 3L224.778 7.44444" stroke="#AD72D3" stroke-width="3"/>
<path d="M38.1111 7.44444L42.5555 3L47 7.44444L51.4444 3L55.8889 7.44444L60.3333 3L64.7777 7.44444L69.2222 3L73.6666 7.44444L78.1111 3L82.5555 7.44444L87 3L91.4444 7.44444L95.8889 3L100.333 7.44444" stroke="#AD72D3" stroke-width="3"/>
<path d="M118.111 7.44444L122.556 3L127 7.44444L131.444 3L135.889 7.44444L140.333 3L144.778 7.44444L149.222 3L153.667 7.44444L158.111 3L162.556 7.44444L167 3L171.444 7.44444L175.889 3L180.333 7.44444" stroke="#AD72D3" stroke-width="3"/>
</svg>
