<svg width="67" height="68" viewBox="0 0 67 68" fill="none" xmlns="http://www.w3.org/2000/svg">
<path fill-rule="evenodd" clip-rule="evenodd" d="M31.0435 0.411438H35.9746V24.9221L48.4755 3.84398L52.7168 6.35936L40.5832 26.8182L60.9965 14.6187L63.5262 18.8516L42.4367 31.4552H67V36.3864H42.5253L63.5756 48.8707L61.0602 53.1119L40.6109 40.9841L52.8108 61.3981L48.578 63.9278L35.9746 42.8387V67.4114H31.0435V42.9035L18.54 63.9861L14.2988 61.4707L26.425 41.0242L6.01338 53.2226L3.48371 48.9897L24.5729 36.3864H-2.99322e-05V31.4552H24.5439L3.4335 18.9352L5.94887 14.694L26.405 26.8259L14.207 6.41498L18.4398 3.88531L31.0435 24.9749V0.411438Z" fill="#5288EB"/>
</svg>
