<svg width="155" height="168" viewBox="0 0 155 168" fill="none" xmlns="http://www.w3.org/2000/svg">
<g clip-path="url(#clip0_160_16)">
<path d="M80.6189 77.2117C84.9969 93.8253 85.6262 111.746 80.8849 128.295C78.7707 135.702 75.5203 142.842 70.9855 149.062C68.7959 152.059 66.3006 155.176 63.3006 157.423C58.4075 161.07 53.7504 158.404 50.2774 154.26C43.5464 146.243 41.8148 135.195 41.6543 125.036C41.5018 115.314 42.5476 105.531 44.8796 96.121C45.9697 91.6374 47.3652 87.1709 49.2062 82.9406C51.0331 78.7432 53.9769 73.4497 58.9923 72.7411C67.0678 71.5984 73.2618 81.4977 75.4165 88.0231C78.3156 96.8594 76.1199 106.271 72.7343 114.588C70.9633 118.928 68.8809 123.719 65.0004 126.558C61.167 129.378 56.2434 129.283 52.3098 126.662C45.2724 121.944 42.2255 112.317 40.3427 104.479C37.9637 94.6162 36.5157 84.4977 35.9979 74.3976C35.5024 64.6998 35.6468 54.6959 38.2606 45.3119C40.7887 36.263 46.5505 26.8762 56.2129 24.5898C66.8157 22.0712 73.5893 31.4416 77.9041 39.8043C82.0836 47.8914 84.87 56.7171 85.9784 65.7633C86.9815 73.919 86.6684 82.3176 84.4632 90.2532C83.3797 94.1313 81.8031 97.929 79.6687 101.343C78.6156 103.017 77.4295 105.181 75.4968 105.721C72.948 106.42 70.2819 104.124 68.7138 102.273C62.9003 95.3485 63.2715 84.9542 69.0809 78.3163C72.0657 74.9249 75.9546 72.3842 79.6975 69.9556C84.2689 67.0099 89.0135 64.2976 93.8792 61.8941C98.7449 59.4905 103.737 57.3389 108.817 55.4814C111.094 54.6424 113.398 53.8745 115.698 53.1635C118.84 52.1767 121.417 51.4115 123.031 54.9703C126.96 63.5942 120.682 74.0877 116.094 81.0684C105.622 96.9901 88.7024 107.689 69.1635 104.179C64.6087 103.364 59.5292 102.043 55.9541 98.9525C54.1033 97.3499 52.1477 94.7198 53.4009 92.1726C54.2568 90.4116 56.4642 89.1887 58.0415 88.1584C66.1303 82.7631 75.4625 79.428 85.0841 78.1441C90.0148 77.4962 95.0049 77.3456 99.9747 77.6963C104.503 78.0285 110.117 78.2907 114.098 80.7559C121.746 85.5081 122.741 97.5855 121.663 105.627C120.633 113.375 117.053 120.919 110.925 125.846C104.504 130.997 96.0713 132.335 88.0592 131.288C68.8697 128.738 52.8553 114.638 41.25 99.8752C39.8789 98.1117 38.5314 96.3389 37.2544 94.5384C36.5154 93.4858 35.7671 92.4095 35.0423 91.3239C34.7289 90.8715 34.3592 90.4138 34.1164 89.9337C33.6494 89.0209 32.8198 86.9078 33.5512 85.9356C34.4098 84.8038 38.9504 84.1995 40.2529 83.8525C42.8673 83.1823 45.5142 82.6638 48.1983 82.2402C56.9039 80.9049 68.1516 79.4758 76.2563 83.9392C85.6086 89.0911 82.3066 100.663 78.1056 108.287C76.0076 112.07 73.0028 115.825 69.2839 118.107C63.7525 121.512 59.5294 116.84 56.2303 112.655C50.0905 104.899 45.2248 95.41 44.7821 85.3626C44.598 81.1601 45.2182 76.724 47.2829 73.0635C49.7351 68.7302 54.1868 66.5166 58.8698 65.4453C63.1955 64.4321 68.0742 63.8594 72.3588 65.4381C76.8875 67.0854 80.0846 70.8723 82.0208 75.1816C83.9663 79.5147 84.6936 84.2712 84.3451 88.9843C84.1593 91.2768 83.748 93.5483 83.2147 95.7855C82.6956 97.9897 82.2733 100.786 81.2146 102.791C80.8884 103.412 79.8828 104.931 78.799 104.452C78.5363 104.336 78.1253 103.566 77.9757 103.323C77.2646 102.342 76.6148 101.309 75.9415 100.285C74.4124 97.9808 72.8833 95.6765 71.3636 93.3959C68.3054 88.7872 65.2331 84.2114 62.1749 79.6027C60.8047 77.5648 57.7906 79.8443 59.1372 81.8915C63.1541 87.9049 67.1381 93.9039 71.155 99.9174C73.0862 102.831 76.8747 111.236 81.708 108.681C83.6612 107.64 84.4155 105.343 85.042 103.344C85.9294 100.556 86.7418 97.7164 87.3523 94.8461C88.4876 89.4405 88.6274 83.8503 87.2162 78.458C84.4958 68.0717 76.7863 60.4663 65.7915 60.6726C55.6283 60.8538 45.2782 65.1914 42.2007 75.6069C39.0708 86.2348 42.5395 97.6974 47.8756 107.002C52.5717 115.16 61.0542 127.915 71.647 121.153C80.074 115.789 85.6581 104.636 86.2485 94.7314C86.8784 84.2355 77.2274 78.4611 67.946 77.6384C61.6754 77.086 55.2376 77.4213 49.0142 78.3028C43.4582 79.0865 36.5065 79.9799 31.5409 82.7515C26.4906 85.5837 30.0783 90.6422 32.4071 94.0849C35.8257 99.1275 39.5784 103.984 43.6565 108.494C57.7205 124.264 79.6408 139.855 101.872 134.387C121.296 129.584 129.976 106.747 123.93 88.5142C122.362 83.759 119.506 79.1807 114.956 76.8567C110.026 74.3256 103.665 74.0278 98.2675 73.7629C86.4622 73.2186 74.5453 75.2941 63.9014 80.4047C59.6334 82.4639 54.4056 84.9823 51.2508 88.6323C48.2092 92.1557 48.9085 96.841 51.8907 100.219C58.7725 108.067 72.5577 109.506 82.2353 108.364C93.0033 107.096 102.694 101.839 110.325 94.2396C117.819 86.7759 125.393 76.1294 127.457 65.4817C128.359 60.7977 128.157 55.0953 125.214 51.1264C121.845 46.5573 117.028 48.668 112.574 50.1152C99.8093 54.2498 87.6312 60.1545 76.4069 67.5207C67.9746 73.0784 60.1623 80.1463 60.7476 91.179C61.0004 95.9026 62.6433 100.848 65.6903 104.529C68.2833 107.676 72.7695 110.875 77.0122 109.374C81.0197 107.965 83.5787 102.521 85.2862 98.9182C87.2728 94.7129 88.5933 90.1937 89.3736 85.6125C91.192 75.1707 90.2726 64.324 87.514 54.1171C84.7137 43.7348 79.7671 31.6194 71.2948 24.5601C62.7803 17.4626 51.2233 20.1092 43.8566 27.4132C35.83 35.3874 33.0771 47.1826 32.2812 58.1547C31.3634 70.5448 32.39 83.1854 34.5784 95.3973C36.4622 105.865 38.8015 117.908 46.0956 126.115C52.5703 133.411 62.8366 134.806 69.7293 127.332C73.4774 123.257 75.7124 117.748 77.533 112.567C79.2635 107.64 80.4636 102.538 80.4943 97.292C80.5766 87.6139 76.3721 77.0431 68.0876 71.4994C46.1692 56.8126 39.1797 100.825 38.1847 113.848C37.2824 125.794 37.4524 138.88 42.9524 149.847C47.444 158.798 56.8076 167.782 66.3236 159.798C81.1299 147.381 87.268 125.954 87.8675 107.222C88.2019 96.5952 86.8351 86.0611 84.1191 75.7553C83.5344 73.4364 79.9921 74.8546 80.6189 77.2117Z" fill="#FCFAF8"/>
<path d="M66.4396 93.4386C63.9985 85.3542 66.9825 76.2907 73.5904 71.2027C73.1155 71.307 72.6265 71.4442 72.1516 71.5484C75.4296 72.0152 77.6572 74.7851 78.305 77.9562C79.0127 81.4873 77.4378 84.7362 74.3735 86.5422C71.2008 88.418 66.9576 88.6042 63.6365 86.9212C60.8595 85.5179 61.671 82.9522 62.4728 80.5001C63.1894 78.2457 64.0702 76.0639 65.073 73.9164C67.0077 69.7863 69.4537 65.9214 72.3356 62.4059C74.7505 59.43 77.7504 55.7311 81.5644 54.59C86.4741 53.1282 89.551 59.2367 91.706 62.7203C93.0336 64.8571 94.2293 67.0731 95.2933 69.3682C96.2032 71.3402 98.0457 74.097 95.8791 75.7696C94.0046 77.2181 91.3099 78.0294 89.1366 78.8553C86.4694 79.875 83.7369 80.7286 80.9627 81.4067C75.3438 82.7907 69.5486 83.4492 63.7601 83.5022C64.4103 84.3978 65.0605 85.2934 65.7015 86.1653C67.9959 79.7018 71.2007 73.6207 75.3525 68.1543C77.3153 65.5477 79.5993 62.3765 82.274 60.477C85.057 58.5074 85.8514 64.3338 85.9398 66.0802C86.4212 75.811 77.2666 85.4063 67.4553 84.2711C67.9364 85.1508 68.4269 86.0544 68.908 86.9342C71.9097 78.1926 76.9899 70.3887 83.8689 64.2626C82.8508 63.8129 81.8327 63.3631 80.8474 62.9279C82.5177 72.5755 81.57 82.5385 78.0033 91.6389C77.146 93.8114 76.1667 95.9497 75.0138 97.9917C74.527 98.8953 72.0301 104.013 70.8043 103.864C69.8931 103.756 69.5068 101.113 69.3071 100.397C68.8423 98.7979 68.4246 97.1808 68.0397 95.5781C67.3116 92.5482 66.7433 89.5104 66.2456 86.4449C65.8633 84.0192 62.0799 84.4085 62.4622 86.8342C63.0798 90.6199 63.8478 94.374 64.7756 98.1201C65.4438 100.79 65.8861 105.028 68.159 106.876C73.1685 110.993 77.7714 101.074 79.4075 97.7738C84.8212 87.0166 86.6603 74.484 84.5837 62.557C84.3671 61.2446 82.7072 60.1973 81.5622 61.2223C74.2026 67.7837 68.6183 76.0321 65.4125 85.4293C65.0331 86.5373 65.5831 87.9382 66.8653 88.0924C76.902 89.2488 86.1296 81.8444 88.8987 72.372C90.1859 67.9755 90.3084 61.9262 87.2569 58.1644C82.4692 52.2618 76.0701 61.1315 73.2398 64.7089C68.5083 70.7043 64.7893 77.4806 62.2246 84.7079C61.7267 86.1365 62.7094 87.3948 64.166 87.371C72.3649 87.3034 80.5162 85.9391 88.2768 83.3032C91.5551 82.1805 95.3833 81.0064 98.1761 78.9234C100.785 76.9948 101.236 74.1324 100.174 71.1514C98.8791 67.5768 96.9403 64.0905 94.9678 60.8642C93.0841 57.7948 90.958 54.1081 87.92 52.0399C82.0783 48.0856 75.8751 52.9599 71.9105 57.1745C67.0689 62.3362 63.1545 68.4767 60.4651 75.0405C59.2151 78.0797 57.5307 81.8101 57.9099 85.1962C58.3127 88.573 61.281 90.3945 64.2381 91.2887C69.777 92.9504 76.4255 91.3541 80.0018 86.6343C83.2196 82.3841 82.8348 76.2873 79.7097 72.0612C78.1517 69.9599 75.4612 67.9472 72.7318 67.8404C71.1346 67.7825 69.8893 69.3127 68.8571 70.3482C67.6128 71.604 66.542 72.9561 65.607 74.4467C61.8337 80.5317 60.8423 87.9634 62.9301 94.8713C63.6181 97.177 67.1463 95.7918 66.4396 93.4386Z" fill="#FCFAF8"/>
</g>
<defs>
<clipPath id="clip0_160_16">
<rect width="113.205" height="134.321" fill="white" transform="translate(155 125.888) rotate(158.565)"/>
</clipPath>
</defs>
</svg>
