<svg width="60" height="51" viewBox="0 0 60 51" fill="none" xmlns="http://www.w3.org/2000/svg">
<path d="M15.5957 0L2.38267 29.9489C0.866427 33.4213 0 36.2426 0 39.2808C0 46.0085 4.98195 51 11.9134 51C19.0614 51 23.8267 46.0085 23.8267 39.2808C23.8267 33.2043 20.1444 28.6468 14.5126 27.3447L24.4765 2.17021L15.5957 0ZM51.1191 0L37.9061 29.9489C36.3899 33.4213 35.5235 36.2426 35.5235 39.2808C35.5235 46.0085 40.5054 51 47.4368 51C54.3682 51 59.3502 46.0085 59.3502 39.2808C59.3502 33.2043 55.6679 28.6468 50.0361 27.3447L60 2.17021L51.1191 0Z" fill="#F2EBE2"/>
</svg>
