<svg width="62" height="62" viewBox="0 0 62 62" fill="none" xmlns="http://www.w3.org/2000/svg">
<path fill-rule="evenodd" clip-rule="evenodd" d="M28.7269 0H33.29V22.6815L44.8579 3.17638L48.7827 5.50404L37.5546 24.4361L56.4446 13.1471L58.7854 17.0641L39.2698 28.7271H62V33.2902H39.3518L58.8312 44.8429L56.5035 48.7676L37.5803 37.5448L48.8698 56.4354L44.9528 58.7763L33.29 39.2611V62H28.7269V39.321L17.1565 58.8302L13.2317 56.5026L24.453 37.5819L5.56465 48.8701L3.22376 44.9531L22.7391 33.2902H0V28.7271H22.7123L3.17729 17.1414L5.50495 13.2167L24.4345 24.4432L13.1468 5.55552L17.0638 3.21462L28.7269 22.7304V0Z" fill="#F1A43B"/>
</svg>
