<svg width="357" height="338" viewBox="0 0 357 338" fill="none" xmlns="http://www.w3.org/2000/svg">
<g clip-path="url(#clip0_160_8)">
<path d="M12.947 211.005C10.5696 225.369 8.19216 239.733 5.81542 254.093C5.34708 256.923 5.11259 258.339 4.64361 261.173C5.30087 262.29 6.11258 263.223 6.11258 263.223C6.11258 263.223 9.48581 266.164 9.53021 265.663C9.55059 265.437 15.4623 266.677 15.4623 266.677L18.9607 268.837C18.9607 268.837 23.8617 270.321 24.0866 269.427C24.0371 269.391 23.8967 267.114 23.8967 267.114C23.8967 267.114 26.6264 266.376 26.5882 266.813C26.5649 267.083 29.024 263.874 28.9645 264.517C28.9068 265.124 33.445 263.738 33.445 263.738L36.3628 261.709L41.2675 261.88L46.0392 262.803L48.6151 266.068L50.5583 268.067L56.5003 268.712L60.1417 271.427C60.1417 271.427 63.0634 273.584 62.9906 274.334C62.8933 275.386 64.9234 279.134 65.0129 278.128C65.0174 278.101 72.5286 279.957 72.5286 279.957C72.5286 279.957 76.6952 279.784 76.8176 278.501C76.8844 277.763 81.3079 278.749 81.3815 277.942C81.3864 277.887 85.3132 277.045 85.3132 277.045L89.6227 276.782L92.0543 277.406C92.0543 277.406 96.261 279.78 96.5255 276.917C96.7307 274.721 100.585 278.214 100.639 277.658C100.817 275.756 104.482 279.439 104.482 279.439L108.151 280.232L112.877 281.845L117.202 280.794C117.202 280.794 119.36 277.825 119.352 277.953C119.306 278.437 122.776 276.403 122.788 276.28C122.795 276.184 129.046 277.957 129.046 277.957C129.046 277.957 134.265 279.07 134.281 278.871C134.408 277.481 136.594 281.657 136.553 282.114C136.514 282.527 139.908 284.984 139.908 284.984L145.272 284.912C145.272 284.912 149.1 285.413 149.066 285.798C148.967 286.891 153.553 285.629 153.553 285.629C153.553 285.629 158.043 285.643 158.049 285.555C158.158 284.38 162.419 284.976 162.419 284.976L166.249 282.965C166.249 282.965 170.758 283.203 170.772 283.093C170.814 282.66 177.114 284.392 177.121 284.301C177.159 283.863 182.5 282.457 182.482 282.668C182.308 284.574 186.354 281.716 186.277 282.574C186.127 284.199 190.344 280.832 190.215 282.23C190.196 282.445 193.021 284.44 193.021 284.44C193.021 284.44 198.462 284.313 198.315 285.925C198.227 286.895 203.805 286.54 203.805 286.54L209.124 288.029C209.124 288.029 214.121 286.683 214.098 286.953C214.016 287.835 218.177 285.322 218.238 284.671C218.27 284.297 223.271 287.423 223.384 286.168C223.402 285.957 227.301 285.88 227.301 285.88C227.301 285.88 231.937 287.079 231.917 287.277C231.825 288.298 236.844 288.294 236.918 287.508C236.954 287.111 241.378 289.182 241.378 289.182C241.378 289.182 246.702 288.108 246.641 288.791C246.625 288.962 251.529 289.112 251.503 289.422C251.493 289.534 256.006 290.885 256.006 290.885C256.006 290.885 261.506 290.429 261.542 290.056C261.678 288.562 264.985 293.662 265.065 292.768C265.079 292.605 269.706 292.491 269.706 292.491C269.706 292.491 274.459 291.379 274.492 291.026C274.568 290.179 279.504 290.396 279.426 291.254C279.34 292.183 284.182 290.255 284.182 290.255L289.281 291.034C289.281 291.034 294.117 291.645 294.195 290.787C294.198 290.771 297.622 290.306 297.622 290.306L301.15 291.716C301.15 291.716 304.705 292.784 304.695 292.9C304.685 293.007 309.163 292.22 309.001 293.999C308.888 295.227 311.393 298.661 311.586 296.564C311.618 296.215 314.745 296.071 314.696 296.599C314.65 297.112 315.524 296.402 316.449 295.643C317.312 290.428 318.176 285.212 319.039 279.996C320.023 274.05 321.008 268.101 321.992 262.155C326.684 233.803 331.377 205.448 336.07 177.097C233.055 160.047 130.036 142.996 27.0208 125.946C22.3325 154.298 17.64 182.649 12.947 211.005Z" fill="#B7B7B7"/>
<g filter="url(#filter0_d_160_8)">
<path d="M4.14996 272.676C4.13073 272.896 7.54422 275.49 7.59439 274.955C7.61706 274.715 13.5821 275.633 13.5944 275.481C13.5752 275.701 17.2076 276.482 17.1142 277.434C17.275 275.791 22.0532 278.534 22.2888 277.575C22.2388 277.541 22.1293 275.053 22.1196 275.162C22.2262 274.054 24.8839 274.138 24.8378 274.597C24.8117 274.884 27.3214 271.292 27.2554 271.974C27.1921 272.615 31.8665 269.839 31.775 270.753C31.8135 270.365 34.6401 269.274 34.7295 268.373C34.6229 269.455 39.7209 267.529 39.6652 268.123C39.7525 267.209 44.4595 268.626 44.4554 268.676C44.5021 268.187 46.9313 272.726 47.0166 271.849C46.9334 272.713 48.9657 273.606 48.9533 273.758C48.9636 273.645 54.897 274.083 54.9129 273.936C54.9039 274.015 58.6416 275.478 58.5489 276.451C58.654 275.351 61.4626 278.45 61.3842 279.233C61.2798 280.329 63.2853 284.044 63.3864 282.994C63.3912 282.965 71.03 283.069 70.909 284.316C70.9434 283.98 75.0902 283.848 75.2167 282.516C75.2916 281.753 79.7158 282.477 79.7983 281.643C79.8031 281.588 83.7487 280.477 83.7481 280.481C83.9453 278.462 88.2308 278.32 88.0693 279.967C88.191 278.715 90.5515 279.975 90.502 280.481C90.5295 280.186 94.7022 282.713 94.9888 279.768C95.2095 277.505 99.0542 280.929 99.1106 280.356C99.3024 278.396 102.805 283.601 102.956 282.046C102.928 282.341 106.661 282.466 106.636 282.745C106.713 281.974 111.398 283.987 111.371 284.278C111.38 284.198 115.867 281.575 115.718 283.092C115.825 281.983 117.906 279.998 117.893 280.124C117.845 280.622 121.335 278.467 121.348 278.341C121.355 278.244 127.59 280.141 127.608 279.951C127.547 280.605 132.827 281.016 132.843 280.813C132.981 279.389 135.141 283.643 135.093 284.11C135.053 284.536 138.437 286.946 138.429 287.018C138.509 286.174 143.758 287.261 143.793 286.895C143.742 287.413 147.615 287.382 147.58 287.774C147.471 288.899 152.089 287.313 152.063 287.574C152.116 287.052 156.547 287.575 156.558 287.483C156.676 286.278 160.837 287.823 160.928 286.883C160.907 287.115 164.79 284.598 164.766 284.821C164.812 284.362 169.268 285.073 169.278 284.964C169.321 284.521 175.597 286.326 175.604 286.229C175.648 285.783 180.987 284.367 180.967 284.586C180.776 286.545 184.839 283.638 184.753 284.519C184.592 286.188 188.826 282.765 188.687 284.202C188.668 284.422 191.283 288.379 191.465 286.503C191.276 288.472 196.893 286.434 196.73 288.09C196.633 289.089 202.065 290.202 202.2 288.794C202.199 288.828 207.389 291.46 207.49 290.41C207.288 292.509 212.489 289.105 212.46 289.383C212.374 290.294 216.55 287.786 216.614 287.116C216.652 286.733 221.619 290.094 221.743 288.8C221.766 288.585 225.528 290.03 225.662 288.622C225.526 290.017 230.29 290.026 230.269 290.232C230.167 291.29 235.195 291.489 235.27 290.671C235.308 290.261 239.679 293.066 239.72 292.61C239.692 292.905 245.066 291.739 244.996 292.451C244.978 292.633 249.892 293.035 249.86 293.355C249.85 293.469 254.371 295.005 254.357 295.136C254.406 294.634 259.874 294.965 259.914 294.569C260.067 293.002 263.325 298.577 263.416 297.637C263.432 297.464 268.044 297.88 268.069 297.623C268.029 298.045 272.842 296.735 272.878 296.36C272.966 295.466 277.901 295.996 277.815 296.903C277.721 297.885 282.647 295.501 282.585 296.129C282.708 294.848 287.72 296.821 287.675 297.276C287.709 296.913 292.497 298.228 292.589 297.314C292.592 297.297 295.875 298.457 296.017 297.004C295.982 297.37 299.674 297.146 299.519 298.727C299.566 298.238 303.052 300.086 303.039 300.213C303.029 300.327 307.495 299.738 307.312 301.648C307.183 302.967 309.63 306.832 309.85 304.573C309.886 304.198 312.994 304.22 312.939 304.789C312.885 305.345 313.766 304.621 314.693 303.85L320.653 267.839L11.604 216.689L2.67624 270.63C3.33172 271.757 4.12588 272.899 4.14996 272.676Z" fill="white"/>
</g>
<path d="M8.57798 262.236C8.52275 262.804 11.5204 260.203 11.5618 259.772C11.724 258.117 16.9039 258.751 16.8156 259.648C16.9819 257.942 19.9041 262.438 19.8296 263.226C19.9262 262.227 24.3166 264.622 24.3401 264.402C24.2986 264.834 29.1599 264.929 29.097 265.568C29.0376 266.16 33.1367 266.684 33.2479 265.545C33.3162 264.821 36.7025 263.167 36.6183 264.039C36.7108 263.065 40.9764 265.358 41.0889 264.186C40.9923 265.184 45.3782 263.975 45.4003 263.764C45.3968 263.785 50.0149 265.426 50.0895 264.639C49.9721 265.867 54.0417 262.73 54.0251 262.908C53.9941 263.225 58.6754 263.914 58.6878 263.761C58.6761 263.884 62.9359 261.802 62.929 261.87C63.0174 260.947 67.6892 263.483 67.6657 263.729C67.6312 264.067 72.3657 262.619 72.3872 262.412C72.2512 263.83 76.974 263.334 76.9609 263.466C77.0976 262.043 81.408 263.832 81.2783 265.161C81.3121 264.826 86.1507 263.683 85.9864 265.376C85.9829 265.397 90.2076 267.004 90.1896 267.19C90.2 267.102 94.6297 268.222 94.6124 268.404C94.5482 269.051 99.5444 268.201 99.5796 267.833C99.6714 266.889 104.091 268.072 103.972 269.308C104.024 268.788 108.982 268.606 108.926 269.203C108.893 269.563 113.889 267.827 113.804 268.708C113.936 267.366 118.641 270.454 118.641 270.476C118.62 270.709 123.551 269.448 123.485 270.134C123.57 269.253 128.271 270.345 128.306 269.951C128.365 269.359 133.392 271.674 133.398 271.607C133.31 272.504 138.046 270.217 138.04 270.251C137.952 271.148 142.936 270.945 142.968 270.619C142.874 271.605 147.442 268.336 147.415 268.598C147.417 268.586 150.705 268.278 150.533 270.073C150.676 268.587 153.88 271.922 153.944 271.253C153.926 271.435 156.364 274.836 156.511 273.329C156.63 272.089 158.035 278.127 158.228 276.129C158.177 276.645 161.23 281.387 161.46 279.016C161.433 279.309 165.515 278.711 165.471 279.16C165.432 279.579 169.008 274.675 168.823 276.571C168.653 278.353 174.187 275.653 174.047 277.122C174.232 275.226 178.045 274.21 177.954 275.175C177.953 275.179 182.845 276.828 182.806 277.221C182.745 277.847 187.924 275.969 187.965 275.516C187.979 275.355 190.835 277.371 190.784 277.914C190.685 278.925 194.982 280.453 195.089 279.344C195.241 277.778 199.973 280.286 200.075 279.202C200.113 278.817 204.402 280.086 204.335 280.75C204.308 281.042 208.786 282.415 208.861 281.654C208.857 281.679 213.091 284.47 213.162 283.759C213.287 282.455 218.27 280.674 218.109 282.32C218.107 282.333 222.61 283.508 222.677 282.818C222.762 281.938 227.312 283.082 227.288 283.332C227.377 282.431 232.311 283.853 232.339 283.553C232.324 283.696 237.078 283.632 237.173 282.671C237.131 283.107 242.092 281.946 242.071 282.153C242.115 281.679 247.417 284.427 247.483 283.771C247.496 283.64 252.172 283.193 252.23 282.583C252.219 282.706 257.106 280.646 257.066 281.07C257.093 280.803 262.34 282.82 262.236 283.917C262.232 283.968 267.271 282.596 267.195 283.391C267.259 282.748 272.343 282.794 272.266 283.594C272.338 282.849 277.064 285.679 277.163 284.693C277.361 282.644 282.42 286.965 282.413 287.003C282.307 288.112 288.683 287.46 288.777 286.477C288.878 285.423 291.814 289.242 291.787 289.509C291.603 291.4 296.709 289.523 296.81 288.469C296.858 287.97 300.702 287.342 300.736 287.003C300.861 285.73 306.048 287.229 306.038 287.313C306.051 287.156 309.526 284.919 309.489 285.295C309.498 285.189 314.36 283.181 314.3 283.825C314.335 283.461 317.339 287.227 317.376 286.846C317.343 287.202 317.988 287.381 318.757 287.53L352.068 81.8824L45.4005 31.7215L3.87589 263.411C4.92654 263.262 8.62353 261.754 8.57798 262.236Z" fill="#C2A6D5"/>
<path d="M133.011 133.565C134.052 134.795 135.085 136.169 134.902 137.792C134.468 141.63 130.817 141.218 130.379 145.055C129.944 148.893 133.696 149.317 133.262 153.15C132.828 156.988 127.596 156.396 127.162 160.229C126.944 162.137 126.737 163.238 126.858 164.234C126.858 164.234 143.328 164.883 158.472 166.597C171.886 168.116 184.18 170.724 184.18 170.724C184.887 169.475 183.396 169.057 183.602 166.68C183.93 162.834 188.092 163.235 188.531 159.394C188.965 155.557 189.103 155.575 189.537 151.738C189.971 147.9 187.018 147.565 187.456 143.728C187.616 142.324 188.537 141.098 189.53 139.952L133.011 133.565Z" fill="#878787"/>
<path d="M132.483 132.292C133.556 133.527 134.628 134.903 134.444 136.53C134.01 140.368 130.25 139.942 129.816 143.78C129.382 147.618 133.247 148.052 132.813 151.89C132.378 155.727 126.991 155.118 126.557 158.952C126.34 160.86 126.128 161.959 126.257 162.957L185.275 169.638C185.999 168.392 184.461 167.97 184.667 165.589C184.992 161.742 189.279 162.156 189.713 158.318C190.148 154.481 190.29 154.5 190.724 150.662C191.158 146.825 188.12 146.48 188.554 142.647C188.714 141.243 189.656 140.016 190.674 138.878L132.483 132.292Z" fill="url(#paint0_linear_160_8)"/>
</g>
<defs>
<filter id="filter0_d_160_8" x="-5.41784" y="212.642" width="334.165" height="104.766" filterUnits="userSpaceOnUse" color-interpolation-filters="sRGB">
<feFlood flood-opacity="0" result="BackgroundImageFix"/>
<feColorMatrix in="SourceAlpha" type="matrix" values="0 0 0 0 0 0 0 0 0 0 0 0 0 0 0 0 0 0 127 0" result="hardAlpha"/>
<feOffset dy="4.04705"/>
<feGaussianBlur stdDeviation="4.04705"/>
<feComposite in2="hardAlpha" operator="out"/>
<feColorMatrix type="matrix" values="0 0 0 0 0.304167 0 0 0 0 0.177431 0 0 0 0 0.177431 0 0 0 0.15 0"/>
<feBlend mode="normal" in2="BackgroundImageFix" result="effect1_dropShadow_160_8"/>
<feBlend mode="normal" in="SourceGraphic" in2="effect1_dropShadow_160_8" result="shape"/>
</filter>
<linearGradient id="paint0_linear_160_8" x1="136.386" y1="128.444" x2="181.068" y2="173.78" gradientUnits="userSpaceOnUse">
<stop stop-color="#E8D1C3"/>
<stop offset="0.2742" stop-color="#C7B2A5"/>
<stop offset="0.6505" stop-color="#E8D1C3"/>
<stop offset="1" stop-color="#C7B2A5"/>
</linearGradient>
<clipPath id="clip0_160_8">
<rect width="313.253" height="289.473" fill="white" transform="translate(47.293 0.645416) rotate(9.39783)"/>
</clipPath>
</defs>
</svg>
