<svg width="26" height="26" viewBox="0 0 26 26" fill="none" xmlns="http://www.w3.org/2000/svg">
<path d="M12.9999 8.93858C10.7635 8.93858 8.93846 10.7637 8.93846 13.0001C8.93846 15.2365 10.7635 17.0616 12.9999 17.0616C15.2364 17.0616 17.0614 15.2365 17.0614 13.0001C17.0614 10.7637 15.2364 8.93858 12.9999 8.93858ZM25.1814 13.0001C25.1814 11.3182 25.1966 9.65155 25.1021 7.97272C25.0077 6.02272 24.5628 4.2921 23.1369 2.86616C21.7079 1.43718 19.9803 0.995379 18.0303 0.900926C16.3485 0.806473 14.6818 0.821707 13.003 0.821707C11.3211 0.821707 9.65448 0.806473 7.97565 0.900926C6.02565 0.995379 4.29503 1.44022 2.86909 2.86616C1.44011 4.29514 0.998309 6.02272 0.903855 7.97272C0.809402 9.6546 0.824637 11.3212 0.824637 13.0001C0.824637 14.6789 0.809402 16.3486 0.903855 18.0274C0.998309 19.9774 1.44315 21.708 2.86909 23.134C4.29807 24.563 6.02565 25.0048 7.97565 25.0992C9.65753 25.1937 11.3242 25.1784 13.003 25.1784C14.6849 25.1784 16.3515 25.1937 18.0303 25.0992C19.9803 25.0048 21.711 24.5599 23.1369 23.134C24.5659 21.705 25.0077 19.9774 25.1021 18.0274C25.1996 16.3486 25.1814 14.6819 25.1814 13.0001ZM12.9999 19.2492C9.54175 19.2492 6.75081 16.4583 6.75081 13.0001C6.75081 9.54186 9.54175 6.75093 12.9999 6.75093C16.4582 6.75093 19.2491 9.54186 19.2491 13.0001C19.2491 16.4583 16.4582 19.2492 12.9999 19.2492ZM19.505 7.95444C18.6976 7.95444 18.0456 7.30241 18.0456 6.49499C18.0456 5.68757 18.6976 5.03553 19.505 5.03553C20.3124 5.03553 20.9645 5.68757 20.9645 6.49499C20.9647 6.68671 20.9271 6.8766 20.8539 7.05378C20.7806 7.23096 20.6731 7.39194 20.5376 7.52751C20.402 7.66308 20.241 7.77058 20.0638 7.84384C19.8866 7.9171 19.6968 7.95468 19.505 7.95444Z" fill="white"/>
</svg>
