<svg width="26" height="26" viewBox="0 0 26 26" fill="none" xmlns="http://www.w3.org/2000/svg">
<path fill-rule="evenodd" clip-rule="evenodd" d="M0.288819 2.41273C0.288819 1.84944 0.512587 1.30921 0.910898 0.9109C1.30921 0.51259 1.84943 0.288821 2.41273 0.288821H23.5848C23.864 0.288365 24.1405 0.342974 24.3985 0.44952C24.6565 0.556067 24.891 0.712459 25.0885 0.909743C25.286 1.10703 25.4426 1.34133 25.5495 1.59923C25.6563 1.85714 25.7112 2.13358 25.711 2.41273V23.5848C25.7113 23.864 25.6566 24.1406 25.5499 24.3986C25.4432 24.6566 25.2867 24.8911 25.0894 25.0886C24.892 25.286 24.6576 25.4427 24.3996 25.5495C24.1417 25.6563 23.8652 25.7112 23.586 25.711H2.41273C2.13372 25.711 1.85744 25.6561 1.59968 25.5493C1.34192 25.4424 1.10773 25.2859 0.910489 25.0886C0.713251 24.8912 0.556829 24.6569 0.45016 24.3991C0.343491 24.1413 0.288667 23.865 0.288819 23.586V2.41273ZM10.3514 9.98162H13.7938V11.7103C14.2907 10.7166 15.5618 9.82215 17.4719 9.82215C21.1339 9.82215 22.0017 11.8016 22.0017 15.4335V22.1612H18.2958V16.2609C18.2958 14.1925 17.799 13.0254 16.5371 13.0254C14.7864 13.0254 14.0584 14.2838 14.0584 16.2609V22.1612H10.3514V9.98162ZM3.99584 22.0029H7.70286V9.82215H3.99584V22.0017V22.0029ZM8.23326 5.84935C8.24025 6.16675 8.18377 6.48235 8.06714 6.77763C7.95051 7.0729 7.77607 7.34191 7.55406 7.56886C7.33206 7.79581 7.06696 7.97612 6.77432 8.09923C6.48169 8.22233 6.16741 8.28575 5.84993 8.28575C5.53245 8.28575 5.21817 8.22233 4.92554 8.09923C4.6329 7.97612 4.3678 7.79581 4.1458 7.56886C3.92379 7.34191 3.74935 7.0729 3.63272 6.77763C3.51609 6.48235 3.45961 6.16675 3.4666 5.84935C3.48032 5.22634 3.73744 4.63347 4.18291 4.1977C4.62838 3.76194 5.22677 3.51793 5.84993 3.51793C6.47309 3.51793 7.07148 3.76194 7.51695 4.1977C7.96242 4.63347 8.21954 5.22634 8.23326 5.84935Z" fill="white"/>
</svg>
