<svg width="620" height="431" viewBox="0 0 620 431" fill="none" xmlns="http://www.w3.org/2000/svg">
<g clip-path="url(#clip0_407_282)">
<path d="M25.0808 432.716L98.8493 357.706L0.317111 320.832L96.201 277.536L17.6429 207.558L122.692 201.822L74.7181 108.191L174.746 140.791L163.834 36.1527L245.331 102.686L272.956 1.17135L324.915 92.6513L387.346 7.97154L402.75 112.044L491.555 55.6349L468.323 158.244L571.509 137.724L512.78 225.012L616.41 243.153L530.114 303.331L620.193 357.682L517.986 382.623L582.348 465.844L478.033 452.18L507.986 553.032L415.652 502.606L407.15 607.468L339.267 527.093L293.458 621.803L259.194 522.333L182.266 594.1L186.247 488.969L88.5894 528.099L130.28 431.506L25.0808 432.716Z" fill="#466DEE"/>
</g>
<defs>
<clipPath id="clip0_407_282">
<rect width="620" height="431" fill="white"/>
</clipPath>
</defs>
</svg>
