<?xml version="1.0" encoding="utf-8"?>
<!-- Generator: Adobe Illustrator 26.3.1, SVG Export Plug-In . SVG Version: 6.00 Build 0)  -->
<svg version="1.1" id="Layer_1" xmlns="http://www.w3.org/2000/svg" xmlns:xlink="http://www.w3.org/1999/xlink" x="0px" y="0px"
	 viewBox="0 0 384 282.4" style="enable-background:new 0 0 384 282.4;" xml:space="preserve">
<style type="text/css">
	.st0{display:none;fill:none;stroke:#F1A43B;stroke-width:3;}
	.st1{fill:none;stroke:#F1A43B;stroke-width:3;}
</style>
<path class="st0" d="M232.2,26.3C129.6,62.6-19.5,168,7.8,242.4c19.3,52.8,170.4,49.8,295.3-28.7c60.1-37.7,88.1-89.5,73-118.3"/>
<g>
	<path class="st1" d="M376,95.4c-11.2-21.3-45.9-30-108.8-11.2"/>
	<path class="st1" d="M164.1,122.1c0,0-62.3,23.5-108,59.3"/>
	<path class="st1" d="M163.1,122.6c23-10,75-30,104.5-38.5"/>
</g>
<path class="st0" d="M188.3,4.6c7.2,11.5,29.6,30.6,61.4,14.6"/>
<path class="st0" d="M215.2,71.7c-2.5-13.4,0.9-42.6,35.1-52.4"/>
</svg>
