<svg width="26" height="26" viewBox="0 0 26 26" fill="none" xmlns="http://www.w3.org/2000/svg">
<path fill-rule="evenodd" clip-rule="evenodd" d="M0.289063 2.41273C0.289063 1.84944 0.512831 1.30921 0.911142 0.9109C1.30945 0.51259 1.84968 0.288821 2.41297 0.288821H23.5851C23.8642 0.288365 24.1407 0.342974 24.3987 0.44952C24.6568 0.556067 24.8912 0.712459 25.0887 0.909743C25.2862 1.10703 25.4429 1.34133 25.5497 1.59923C25.6565 1.85714 25.7114 2.13358 25.7113 2.41273V23.5848C25.7116 23.864 25.6568 24.1406 25.5502 24.3986C25.4435 24.6566 25.287 24.8911 25.0896 25.0886C24.8922 25.286 24.6579 25.4427 24.3999 25.5495C24.1419 25.6563 23.8654 25.7112 23.5862 25.711H2.41297C2.13396 25.711 1.85768 25.6561 1.59992 25.5493C1.34216 25.4424 1.10797 25.2859 0.910733 25.0886C0.713495 24.8912 0.557073 24.6569 0.450404 24.3991C0.343736 24.1413 0.288911 23.865 0.289063 23.586V2.41273ZM10.3516 9.98162H13.794V11.7103C14.2909 10.7166 15.562 9.82215 17.4722 9.82215C21.1341 9.82215 22.002 11.8016 22.002 15.4335V22.1612H18.2961V16.2609C18.2961 14.1925 17.7992 13.0254 16.5373 13.0254C14.7867 13.0254 14.0587 14.2838 14.0587 16.2609V22.1612H10.3516V9.98162ZM3.99608 22.0029H7.70311V9.82215H3.99608V22.0017V22.0029ZM8.23351 5.84935C8.2405 6.16675 8.18402 6.48235 8.06738 6.77763C7.95075 7.0729 7.77631 7.34191 7.55431 7.56886C7.3323 7.79581 7.0672 7.97612 6.77457 8.09923C6.48193 8.22233 6.16765 8.28575 5.85017 8.28575C5.5327 8.28575 5.21842 8.22233 4.92578 8.09923C4.63314 7.97612 4.36804 7.79581 4.14604 7.56886C3.92403 7.34191 3.7496 7.0729 3.63296 6.77763C3.51633 6.48235 3.45985 6.16675 3.46684 5.84935C3.48056 5.22634 3.73769 4.63347 4.18315 4.1977C4.62862 3.76194 5.22701 3.51793 5.85017 3.51793C6.47334 3.51793 7.07173 3.76194 7.51719 4.1977C7.96266 4.63347 8.21979 5.22634 8.23351 5.84935V5.84935Z" fill="black"/>
</svg>
